<?xml version="1.0" encoding="utf-8"?>
<!-- Generator: Adobe Illustrator 26.5.0, SVG Export Plug-In . SVG Version: 6.00 Build 0)  -->
<svg version="1.0" id="Layer_1" xmlns="http://www.w3.org/2000/svg" xmlns:xlink="http://www.w3.org/1999/xlink" x="0px" y="0px"
	 viewBox="0 0 724.38 551.43" style="enable-background:new 0 0 724.38 551.43;" xml:space="preserve">
<g>
	<path d="M251.79,103.71c41.78-10.41,87.4-5,125.4,15.26c50.44,26.66,84.95,75.99,92.71,132.51c-14.88,0-29.77,0-44.66,0
		c0,16.19,0,32.37,0,48.56c14.89,0,29.78,0,44.67,0c-10.36,75.13-67.41,135.32-141.88,149.67c-24.56,4.69-49.84,4.16-74.19-1.53
		c-23.61-5.54-45.82-15.9-65.24-30.43c-78.45-58.54-94.59-169.6-36.05-248.05C177.02,136.91,212.09,113.59,251.79,103.71z
		 M286.47,217.96c-31.85,4.46-54.06,33.89-49.61,65.75s33.89,54.06,65.75,49.61s54.06-33.89,49.61-65.75
		c-2.63-18.83-14.29-35.18-31.23-43.82c-10.64-5.42-22.69-7.43-34.52-5.77V217.96z"/>
	<path d="M489.19,108.86H607c0,109.52,0,219.03,0,328.54H489.19V300.02h48.7c0-16.18,0-32.36,0-48.55h-48.7
		C489.15,203.93,489.15,156.39,489.19,108.86z"/>
</g>
</svg>
